<?xml version="1.0" standalone="no"?>
<!DOCTYPE svg PUBLIC "-//W3C//DTD SVG 20010904//EN"
 "http://www.w3.org/TR/2001/REC-SVG-20010904/DTD/svg10.dtd">
<svg version="1.0" xmlns="http://www.w3.org/2000/svg"
 width="260.000000pt" height="260.000000pt" viewBox="0 0 260.000000 260.000000"
 preserveAspectRatio="xMidYMid meet">
<metadata>
Created by potrace 1.14, written by Peter Selinger 2001-2017
</metadata>
<g transform="translate(0.000000,260.000000) scale(0.100000,-0.100000)"
fill="#000000" stroke="none">
<path d="M0 1300 l0 -1300 1300 0 1300 0 0 1300 0 1300 -1300 0 -1300 0 0
-1300z m1585 1038 c44 -11 122 -39 174 -64 102 -48 124 -52 178 -29 62 26 80
2 45 -61 -49 -89 -188 -196 -251 -193 -9 0 -34 22 -56 48 -62 72 -133 129
-214 169 -65 32 -83 37 -150 37 -63 0 -83 -4 -115 -24 -79 -49 -97 -124 -47
-202 49 -77 142 -127 485 -260 136 -52 139 -53 153 -34 8 11 47 66 87 123 103
146 193 244 220 240 43 -6 31 -43 -45 -130 -72 -84 -199 -259 -199 -274 0 -5
30 -24 66 -43 148 -77 242 -203 252 -339 11 -165 -88 -366 -275 -558 -76 -78
-218 -194 -237 -194 -7 0 -44 25 -82 55 -38 30 -115 79 -172 108 -94 47 -105
50 -115 35 -7 -9 -41 -65 -77 -124 -107 -176 -242 -305 -380 -363 -81 -35
-187 -34 -257 2 -136 70 -180 241 -104 402 77 163 234 276 443 319 96 20 271
20 362 1 38 -8 70 -14 71 -12 17 25 104 186 107 195 2 8 -29 25 -82 46 -310
121 -462 255 -500 440 -30 148 36 257 82 133 10 -26 26 -59 35 -74 34 -52 148
-134 268 -193 116 -56 322 -137 328 -129 21 27 55 99 49 103 -4 2 -61 26 -127
51 -239 94 -380 180 -451 276 -106 145 -99 302 20 421 117 118 291 150 511 96z"/>
<path d="M1686 1426 c-14 -25 -26 -48 -26 -53 0 -4 31 -23 68 -41 75 -36 141
-95 166 -147 24 -50 21 -144 -8 -207 -44 -100 -95 -114 -106 -31 -7 49 -28 83
-73 117 -35 26 -168 99 -172 94 -9 -10 -115 -198 -115 -205 0 -4 42 -25 93
-46 50 -21 132 -62 182 -92 l89 -53 31 24 c34 26 119 129 153 185 12 20 29 64
37 98 19 71 10 140 -26 198 -31 49 -119 123 -197 166 l-70 37 -26 -44z"/>
<path d="M844 806 c-183 -42 -314 -170 -315 -309 -2 -161 140 -230 305 -148
100 49 210 158 307 305 44 65 79 122 79 126 0 29 -277 48 -376 26z"/>
</g>
</svg>
